# xmcd CD database file
#
# Track frame offsets:
#	150
#	16585
#	31910
#	46750
#	61925
#	79205
#	95585
#	111770
#	126885
#	143255
#	160575
#
# Disc length: 2310 seconds
#
# Revision: 4
# Processed by: cddbd v1.5.2PL0 Copyright (c) Steve Scherf et al.
# Submitted via: CDex 1.70beta2
#
DISCID=7809040b
DTITLE=Daniela Mercury - MPB no JT
DYEAR=1998
DGENRE=MPB
TTITLE0=Swing da Cor
TTITLE1=Ninguém Atura
TTITLE2=Milagres
TTITLE3=Todo Canto Alegre
TTITLE4=Geléia Geral
TTITLE5=Menino do Pelô
TTITLE6=Tudo Reggae
TTITLE7=Vida
TTITLE8=Tudo de Novo
TTITLE9=Doce Esperança
TTITLE10=Maravilhê Maravilhá
EXTD=YEAR: 1998
EXTT0=
EXTT1=
EXTT2=
EXTT3=
EXTT4=
EXTT5=
EXTT6=
EXTT7=
EXTT8=
EXTT9=
EXTT10=
PLAYORDER=
